<mxfile host="app.diagrams.net" modified="2024-03-06T19:45:35.314Z" agent="Mozilla/5.0 (Windows NT 10.0; Win64; x64; rv:123.0) Gecko/20100101 Firefox/123.0" version="24.0.2" etag="VwnxSZBKPZDBkJ1zn96V" type="github">
  <diagram name="Strona-1" id="2mby6Q6_6u6laf7TEtEs">
    <mxGraphModel>
      <root>
        <mxCell id="0" />
        <mxCell id="1" parent="0" />
      </root>
    </mxGraphModel>
  </diagram>
</mxfile>
